<svg xmlns="http://www.w3.org/2000/svg" viewBox="0 0 24 24" color="rgb(24 24 27)" fill="rgb(228 228 231)"><path d="M7.026 5.746c.518-.4.777-.599 1.076-.727.136-.059.277-.106.422-.141.319-.078.657-.078 1.334-.078h4.284c.677 0 1.015 0 1.334.078.145.035.286.082.422.14.299.13.558.329 1.076.728 1.718 1.322 2.576 1.983 2.87 2.839.132.38.18.78.145 1.179-.08.894-.759 1.713-2.114 3.35l-3.195 3.858C13.45 18.457 12.835 19.2 12 19.2c-.835 0-1.45-.743-2.68-2.228l-3.195-3.858c-1.355-1.637-2.033-2.456-2.114-3.35a2.838 2.838 0 01.144-1.18c.295-.855 1.153-1.516 2.87-2.838z"/><path d="M10.4 9.2h3.2" stroke="currentColor" stroke-width="1.6" stroke-linecap="round" stroke-linejoin="round"/></svg>