<svg
  xmlns="http://www.w3.org/2000/svg"
  viewBox="0 0 24 24"
  width="64"
  height="64"
  color="rgb(24 24 27)"
  fill="none"
>
  <path
    d="M8.891 8.091c.324-.25.486-.374.673-.454.085-.037.173-.066.263-.088.2-.049.411-.049.834-.049h2.678c.423 0 .634 0 .834.049.09.022.178.051.263.088.187.08.349.205.673.454 1.073.826 1.61 1.24 1.794 1.774.082.238.112.489.09.737-.05.56-.474 1.071-1.321 2.094l-1.997 2.412c-.769.928-1.153 1.392-1.675 1.392s-.906-.464-1.675-1.392l-1.997-2.412c-.847-1.023-1.27-1.535-1.32-2.094a1.774 1.774 0 01.09-.737c.183-.535.72-.948 1.793-1.774z"
    stroke-width="1"
    stroke="currentColor"
  />
  <path
    d="M11 10.25h2"
    stroke-linecap="round"
    stroke-linejoin="round"
    stroke-width="1"
    stroke="currentColor"
  />
</svg>